<svg width="257" height="257" viewBox="0 0 257 257" fill="none" xmlns="http://www.w3.org/2000/svg">
<path d="M40.252 233.809H27.7146V244.677H40.1609C43.8948 244.677 46.2475 242.704 46.2475 239.273C46.2475 236.01 44.0466 233.809 40.252 233.809ZM38.6431 214.897H27.7146V224.231H38.7949C42.4377 224.231 44.7296 222.486 44.7296 219.374C44.7296 216.263 42.4529 214.897 38.6583 214.897H38.6431ZM41.0716 255.089H15.5566V204.484H39.569C50.6492 204.484 56.9635 209.417 56.9635 217.538C56.9635 222.106 54.5349 226.144 50.3457 228.345C55.8099 230.546 58.709 234.947 58.709 240.336C58.709 249.23 52.2582 255.089 41.0868 255.089M103.152 214.517V255.089H91.5249V250.536C88.3374 253.951 84.0874 256 79.3669 256C70.1687 256 65.7063 249.625 65.7063 241.414V214.517H77.3178V238.742C77.3178 242.172 78.3803 245.663 83.6169 245.663C87.9579 245.663 91.5097 242.855 91.5097 237.619V214.517H103.152ZM136.726 209.721C135.816 209.417 134.146 208.886 132.097 208.886C129.122 208.886 127.695 209.873 127.695 212.529V214.502H136.119V223.321H127.68V255.089H116.068V223.321H109.754V214.517H116.068V212.848C116.068 205.319 121.001 200.007 130.731 200.007C133.387 200.007 135.816 200.234 137.941 200.841L136.726 209.721ZM160.799 223.624C154.576 223.624 151.616 228.785 151.616 234.872C151.616 240.943 154.576 245.952 160.799 245.952C167.114 245.952 170.225 240.943 170.225 234.872C170.225 228.724 167.038 223.64 160.815 223.64L160.799 223.624ZM170.225 255.089V250.445C168.698 252.226 166.795 253.648 164.654 254.608C162.513 255.569 160.186 256.044 157.84 256C146.456 256 139.383 246.802 139.383 234.796C139.383 222.714 146.441 213.607 157.84 213.607C162.788 213.607 166.947 215.428 170.225 219.147V200.841H181.913V255.089H170.225ZM192.492 255.089V214.517H204.119V255.089H192.492ZM192.492 209.493V200.841H204.119V209.493H192.492ZM239.302 226.66C238.088 225.992 236.631 225.446 234.749 225.446C229.877 225.446 226.294 229.483 226.294 235.479V255.089H214.683V214.517H226.294V220.589C228.814 216.49 232.76 213.758 237.086 213.758C239.06 213.758 241.184 214.29 242.338 214.973L239.302 226.66Z" fill="black"/>
<path d="M252.557 38.5966C252.557 38.5966 244.862 34.0582 220.212 20.686C207.083 13.5521 187.927 6.11468 175.344 3.10934C149.678 -3.03794 126.621 -0.0326019 108.65 11.7914C107.254 12.7021 105.888 13.6887 104.552 14.7209L104.066 15.0852C79.8263 33.8457 74.4076 62.1991 72.4951 73.0973C70.6433 83.5097 70.6737 93.1328 71.7058 101.633C72.5049 109.586 74.4634 117.379 77.5192 124.765C79.4924 129.743 81.5263 133.508 82.9986 135.769C84.7896 138.532 86.7628 141.082 88.8423 143.434C101.228 158.279 119.503 168.099 142.119 172.015C190.432 180.363 222.443 159.205 236.589 136.847C243.875 125.342 245.165 112.455 243.192 95.0908C240.946 75.2071 243.708 66.8893 249.901 48.4474L252.557 38.5814" fill="black"/>
<path d="M229.145 83.7559C229.57 88.613 230.845 104.277 231.058 108.907C231.331 115.206 228.887 123.994 225.169 129.974C213.512 148.689 186.236 166.099 144.586 158.904C142.314 158.517 140.056 158.051 137.817 157.508C133.704 156.42 129.651 155.118 125.674 153.607C113.379 148.629 103.498 141.07 96.5766 131.264C86.1794 116.541 82.6883 97.1129 86.4981 75.1193C88.101 65.0556 91.3199 55.317 96.0302 46.2803C99.7087 39.5752 104.45 33.5111 110.07 28.3241C112.04 26.5853 114.129 24.9876 116.324 23.5429C131.047 13.8287 150.415 11.4912 172.332 16.7126C189.636 20.8867 223.863 40.2848 236.036 46.7204C229.434 63.098 228.25 73.7836 229.145 83.7559Z" fill="white"/>
<path d="M129.881 68.2424C128.542 68.6995 127.123 68.8757 125.713 68.7599C124.303 68.6441 122.932 68.2388 121.686 67.5694C120.439 66.8999 119.344 65.9806 118.469 64.869C117.594 63.7573 116.958 62.4772 116.599 61.1085C115.051 55.1434 118.299 49.1631 123.794 47.9032C129.258 46.7193 135.087 50.2711 136.847 55.6443C138.669 60.9264 135.588 66.4817 129.881 68.2424ZM170.498 47.8122C170.65 47.2961 122.079 19.0793 98.704 13.4937C45.2303 0.713396 11.018 29.9319 2.60917 78.67C-5.7997 127.423 18.8349 163.791 67.573 172.215C116.326 180.639 145.347 158.038 156.898 139.505C162.287 130.854 165.14 116.829 163.076 99.5252C160.921 81.4628 161.33 77.2584 170.483 47.8274" fill="black"/>
<path d="M185.161 57.6C184.876 60.4647 185.738 63.3254 187.558 65.5558C191.444 69.9576 198.472 70.1701 203.101 66.3147C204.173 65.5096 205.06 64.4849 205.703 63.3093C206.347 62.1336 206.732 60.834 206.832 59.4976C206.933 58.1611 206.747 56.8186 206.286 55.5598C205.826 54.3011 205.102 53.1552 204.164 52.1988C200.293 47.7515 193.615 46.7345 189.076 50.2711C186.853 52.1 185.445 54.7353 185.161 57.6Z" fill="black"/>
</svg>
