<svg xmlns="http://www.w3.org/2000/svg" xml:space="preserve" width="101.195" height="104.313">
  <path d="M30.873 40.726c-2.218 0-3.985 1.042-5.29 3.123-1.304 2.08-1.958 4.834-1.958 8.263 0 3.479.654 6.229 1.959 8.25 1.304 2.026 3.016 3.033 5.132 3.033 2.182 0 3.914-.983 5.191-2.95 1.278-1.967 1.92-4.698 1.92-8.188 0-3.64-.619-6.473-1.861-8.498-1.242-2.022-2.938-3.033-5.093-3.033z"/>
    <path d="M0 11.754V91.58l60.727 12.733V0Zm40.636 53.408c-2.566 3.377-5.912 5.07-10.041 5.07-4.024 0-7.3-1.638-9.834-4.91-2.531-3.275-3.8-7.537-3.8-12.795 0-5.552 1.285-10.042 3.859-13.47 2.574-3.428 5.982-5.144 10.225-5.144 4.008 0 7.252 1.638 9.724 4.92 2.476 3.284 3.715 7.61 3.715 12.98.003 5.521-1.282 9.972-3.848 13.349zm23.931-43.046h16.279v-4.014c0-2.217 1.818-4.015 4.07-4.015 2.25 0 4.07 1.798 4.07 4.015v4.014h6.104c3.37 0 6.105 2.696 6.105 6.022v6.022H64.567Zm0 16.058h36.628v34.124c0 3.324-2.735 6.022-6.105 6.022H64.567Z"/>
</svg>