<svg xmlns="http://www.w3.org/2000/svg" width="950" height="256" fill="none" viewBox="0 0 950 256"><path fill="#000" d="M350.4 115.4c3 .7 5.8 1.5 8.7 2.4 2.8.9 5.4 2 7.6 3.3 2.2 1.3 4 3 5.2 5.3 1.3 2 2 4.8 2 8 0 3.6-.9 6.8-2.6 9.6a16.6 16.6 0 0 1-7.5 6.8 37.6 37.6 0 0 1-26.8-.2 22.7 22.7 0 0 1-9.6-7.6 22.4 22.4 0 0 1-4-12h10a17 17 0 0 0 2.2 7.3 12 12 0 0 0 5.5 5 24 24 0 0 0 9.6 1.7c3.4 0 6-.4 7.9-1.3 1.8-1 3.2-2.2 4-3.7.8-1.5 1.2-3.2 1.2-5 0-2.6-.7-4.7-2-6a13.2 13.2 0 0 0-6-3.3c-3-1-6.2-1.9-9.4-2.7-2.5-.6-5-1.3-7.3-2.1-2.4-.8-4.6-1.9-6.7-3.2-1.9-1.3-3.5-3-4.8-4.9a14.4 14.4 0 0 1-1.7-7.3c0-3.7.9-6.7 2.6-9.2a17 17 0 0 1 7.6-5.9c3.3-1.3 7.1-2 11.6-2a30 30 0 0 1 12.3 2.4 19 19 0 0 1 8.4 6.7c2.2 3.2 3.4 6.9 3.7 10.7h-10c-.6-3.8-2-6.6-4.2-8.6s-5.7-3-10.2-3c-2.2 0-4.5.3-6.6 1a9.8 9.8 0 0 0-4 2.7c-.9 1.4-1.3 3-1.3 4.6 0 2.3.7 4 2 5.3 1.6 1.4 3.4 2.5 5.3 3 2.2.8 4.7 1.5 7.3 2.2Zm43.7-22.2v46.5c0 1.6.2 2.7.5 3.6.3.7.8 1.3 1.5 1.7.8.3 1.8.4 3 .4h1.7l2-.3v6.9c-1.9.3-3.7.5-5.5.5-2.4 0-4.5-.4-6.3-1.1a8 8 0 0 1-4-4c-1-2.5-1.5-5.2-1.4-8V93.2h8.5Zm-15 14.3h23.5v7.1h-23.5v-7Zm31.8 45.4-3.1-3.2 43-43.2 3.2 3.3-43 43.1Zm20 .4c-4.2 0-8.3-1-11.9-3a20 20 0 0 1-7.6-8.4 26 26 0 0 1-2.7-12.2c0-3.2.4-6.4 1.4-9.4a20.2 20.2 0 0 1 11.5-12.5 24 24 0 0 1 9.4-1.7c4.6 0 8.6 1 11.8 3 3.3 2 5.9 4.8 7.6 8.3a29.8 29.8 0 0 1 1.2 22 20.3 20.3 0 0 1-11.4 12.2 24.9 24.9 0 0 1-9.3 1.7Zm0-7.1a11.8 11.8 0 0 0 10.1-4.7c1-1.6 1.9-3.3 2.4-5.3 1.3-5 1-10-.7-14.8-.8-2.4-2.3-4.4-4.3-6-2-1.4-4.4-2.1-7.4-2.1-2.3 0-4.4.4-6 1.2-1.7.8-3.2 2-4.2 3.5a18 18 0 0 0-2.5 5.3c-1.3 4.9-1 10 .6 14.8 1 2.4 2.5 4.4 4.5 6 2 1.4 4.6 2 7.6 2Zm42.6-53v46.5c0 1.6.2 2.7.4 3.6.3.7.9 1.3 1.6 1.7.8.3 1.7.4 3 .4h1.7l2-.3v6.9c-1.9.3-3.7.5-5.6.5-2.3 0-4.4-.4-6.2-1.1a8 8 0 0 1-4-4 18.1 18.1 0 0 1-1.5-8V93.2h8.6Zm-15 14.3H482v7.1h-23.5v-7Zm43.2-14.3v46.5c0 1.6 0 2.7.3 3.6a4 4 0 0 0 1.7 1.7c.7.3 1.7.4 2.9.4h1.8l1.9-.3v6.9c-1.9.3-3.7.5-5.5.5-2.4 0-4.5-.4-6.3-1.1a8 8 0 0 1-4-4c-1-2.5-1.5-5.2-1.4-8V93.2h8.5Zm-15 14.3H510v7.1h-23.5v-7Zm50.5 45.8c-4.8 0-8.8-1-12-3a20 20 0 0 1-7.5-8.5 28.3 28.3 0 0 1-2.5-12.2c0-3.2.4-6.4 1.5-9.4a19 19 0 0 1 11.2-12.3 24.8 24.8 0 0 1 20.7 1 18 18 0 0 1 7 8c1.9 3.7 2.7 7.8 2.6 12v3.1h-38.7v-6.7h29.8c0-1.8-.3-3.3-1-4.8a11.2 11.2 0 0 0-6.3-6.4 13 13 0 0 0-5.1-1c-2.5 0-4.7.5-6.7 1.6a12.6 12.6 0 0 0-6.2 11.7v5.2a16 16 0 0 0 5.9 12.6c2.2 1.5 4.8 2.2 7.4 2.1 2.6 0 4.7-.5 6.3-1.4 2.5-1.5 4.5-3.8 5.4-6.6h8.6a20.5 20.5 0 0 1-10.5 13c-2.7 1.3-6 2-10 2Zm40.5-60v46.4c0 1.6.1 2.7.4 3.6.3.7.8 1.3 1.5 1.7a9 9 0 0 0 3 .4h1.8l1.9-.3v6.9a33 33 0 0 1-5.5.5 16 16 0 0 1-6.3-1.1 8 8 0 0 1-4-4c-1-2.5-1.5-5.2-1.4-8V93.2h8.6Zm-15 14.2h23.5v7.1h-23.5v-7Zm65 45.7a15 15 0 0 1-10.6-3.5c-2.6-2.4-4-5.5-4-9.3a11.7 11.7 0 0 1 5.1-10.4c1.7-1 3.7-2 6-2.7 2.2-.7 4.8-1.3 7.5-1.8l4.7-1c1.4-.3 2.6-.6 3.6-1a7 7 0 0 0 2.2-1.9c.5-.8.8-1.7.7-2.7 0-1.6-.6-3-1.8-4.1-1.1-1.2-3.3-1.8-6.6-1.8-4 0-6.5.7-8 2-1.5 1.2-2.3 3.4-2.6 6.4h-8.7c.2-2.7 1-5.3 2.3-7.7 1.4-2.3 3.5-4.2 6.3-5.5 2.8-1.4 6.5-2.1 11-2.1 2.9 0 5.7.5 8.3 1.5 2.5 1 4.5 2.5 6 4.7s2.2 5.3 2.2 9.2v20.3c0 1.7.1 3 .5 3.7.2.9.8 1.2 1.6 1.2h1v5.2c-.7.1-1.4.3-2.2.3l-2.1.2c-1.8.1-3.5-.4-5-1.4-1-1-1.7-2.7-2-5.3h-.2a16.9 16.9 0 0 1-15.2 7.5Zm1.9-6.9c2.6 0 4.8-.4 6.8-1.3a10.5 10.5 0 0 0 6.5-10.4v-6.3c-.4.4-1.2.8-2.1 1.2-1 .4-2.1.7-3.4 1l-4.2 1c-2.2.4-4.4 1-6.4 1.9a8.6 8.6 0 0 0-3.6 2.6 6.5 6.5 0 0 0-1.1 3.8c0 2.1.6 3.7 1.8 4.9 1.2 1 3 1.6 5.7 1.6Zm26-38.8h9.1l11.6 35.6h.2l11.4-35.6h9L681 152h-9.6l-15.8-44.5Zm-319.1 96.9h27.2v8.2h-27.2v27h-9.6v-62.3h43.3v8.3h-33.7v18.8Zm55.8 36.6c-4.1 0-8.3-1-11.9-3-3.3-2-5.9-4.8-7.6-8.4a26.6 26.6 0 0 1-2.7-12.2c0-3.2.5-6.4 1.5-9.4a19.3 19.3 0 0 1 11.5-12.4c3-1.2 6-1.8 9.2-1.8 4.7 0 8.6 1 12 3a20 20 0 0 1 7.5 8.3 30.2 30.2 0 0 1 1.2 22 20.3 20.3 0 0 1-11.4 12.2 24.5 24.5 0 0 1-9.3 1.7Zm0-7.1c2.1 0 4.2-.3 6-1.2 1.6-.8 3-2 4-3.5 1.1-1.6 2-3.3 2.5-5.3 1.4-5 1.2-10.1-.6-14.9-.8-2.3-2.3-4.4-4.3-5.8-2-1.5-4.5-2.2-7.6-2.2a13 13 0 0 0-5.8 1.2c-1.7.8-3.2 2-4.2 3.5a16 16 0 0 0-2.5 5.3c-1.3 4.9-1 10 .6 14.8 1 2.5 2.4 4.5 4.4 6 2 1.4 4.5 2 7.6 2Zm30.6-38.7h8.5v44.5H423v-44.5Zm24.7 7.4-1.5-.1-1.3-.2a13 13 0 0 0-11.7 6.9 16 16 0 0 0-1.7 7.5h-4.2l-1.9-13h6.3c1.1-2.8 2.7-5.1 4.5-6.9 2-1.8 4.4-2.7 7.4-2.7 1.4 0 2.8.1 4.1.4v8.1Zm26 10.2 6 1.6a19 19 0 0 1 5.4 2.5 11.1 11.1 0 0 1 5.6 10.1c0 3-.8 5.5-2.2 7.5a13.2 13.2 0 0 1-6.2 4.7c-2.7 1.1-6 1.7-10 1.7a27 27 0 0 1-11.2-2.1 15.8 15.8 0 0 1-6.8-5.8 16.6 16.6 0 0 1-2.4-8.2h8.6a12 12 0 0 0 1.4 4.7c.9 1.4 2.1 2.5 3.7 3.4 2.1.8 4.4 1.2 6.7 1 2 .2 4-.1 5.8-.9a5.4 5.4 0 0 0 2.8-2.4c.6-1 .9-2.1.9-3.1 0-1.9-.6-3.3-1.8-4.1-1-1-2.6-1.7-4.3-2l-11.5-2.8c-1.9-.6-3.7-1.4-5.3-2.4a12 12 0 0 1-4-3.8c-1-1.7-1.5-3.7-1.5-5.7 0-2.4.7-4.7 2-6.7a14 14 0 0 1 5.8-4.5c3-1.1 6.1-1.7 9.3-1.6 3.4 0 6.8.6 10 2a14.2 14.2 0 0 1 8.5 12.2h-8.6a8.5 8.5 0 0 0-1.3-3.4 6.5 6.5 0 0 0-2.8-2.7c-1.3-.8-3.3-1.2-5.8-1.2a12 12 0 0 0-4.6.7c-1 .3-2 1-2.7 1.9-.6.9-.9 2-.8 3 0 1.5.5 2.6 1.4 3.4a12 12 0 0 0 4.1 1.7l5.8 1.3Zm24.8 26.9v-62.4h8.5v40.1l-3.3-.1 22.7-22h9.8L504 225.7l2.9-6.7v20.6h-8.5Zm29.5 0L512.1 215l5.8-5.2 20 29.8h-10Zm16 0v-44.5h8.6v44.5h-8.6Zm29.5-28.5c0-2-.3-3.7-.9-5.3a6.8 6.8 0 0 0-2.9-3.4 9.5 9.5 0 0 0-5.1-1.3 12.6 12.6 0 0 0-8.9 3.1 10.2 10.2 0 0 0-3.1 8.1h-3v-11.6h3.1a17.1 17.1 0 0 1 14.7-6.9c2.7 0 5.3.6 7.4 1.6 2.2 1.1 4 2.8 5.4 5a16 16 0 0 1 2 8.3v30.9h-8.7v-28.5Zm18.9 28.5v-44.5h8.5v44.5h-8.5Zm-.8-56.9a5 5 0 0 1 1.3-3.4c.8-1 2.2-1.5 3.8-1.5 1.6 0 2.8.5 3.7 1.5.9 1 1.3 2.1 1.3 3.4 0 1.4-.4 2.6-1.3 3.5-.9 1-2.1 1.5-3.8 1.5a5 5 0 0 1-3.7-1.5 5 5 0 0 1-1.3-3.5Zm20 56.9v-44.5h8.5v44.5h-8.5Zm29.5-28.5c0-2-.3-3.7-1-5.3a6.3 6.3 0 0 0-2.8-3.4 9.5 9.5 0 0 0-5.2-1.3c-1.9 0-3.5.3-5 .8a10.2 10.2 0 0 0-7 10.4h-3v-11.6h3.2a17.1 17.1 0 0 1 14.6-6.9c2.8 0 5.3.6 7.5 1.6 2.2 1.1 4 2.8 5.3 5 1.4 2.1 2 4.8 2 8.3v30.9H641v-28.5Zm50 25.5v-41.5h8.6v41c0 4.4-.9 8-2.6 10.9a15 15 0 0 1-7.2 6.4 26.7 26.7 0 0 1-11 2.1c-4.3 0-7.9-.6-10.7-1.9-2.6-1-4.9-2.8-6.6-5a15.3 15.3 0 0 1-2.7-7.2h8.8a8.4 8.4 0 0 0 5.2 6.2c2 .7 4 1 6 1 4 0 7-1 9-3 2.2-1.8 3.2-4.8 3.2-9Zm-.1-6a19 19 0 0 1-5.2 4.7 16.3 16.3 0 0 1-8.6 2c-3.7 0-7-.8-10-2.4a19 19 0 0 1-7-7.4 25 25 0 0 1-2.6-12c0-3.5.6-6.7 1.6-9.3a17.5 17.5 0 0 1 10.3-11c4.5-1.7 9.4-1.9 13.9-.4 3 1 5.7 3 7.6 5.5h.7v30.3h-.7ZM678.7 201a12 12 0 0 0-7 1.9 11.4 11.4 0 0 0-4 5.2 22.2 22.2 0 0 0 0 15.1c.9 2.1 2.2 3.9 4 5.2 2 1.3 4.5 2 7 1.9a10.8 10.8 0 0 0 9-3.6 19.4 19.4 0 0 0 3.2-11.1c0-3.2-.5-6-1.5-8a10 10 0 0 0-4.2-5c-1.8-1-4-1.6-6.5-1.6Zm50.3 11.8 6 1.6a19 19 0 0 1 5.4 2.5A11.2 11.2 0 0 1 746 227c0 3-.8 5.5-2.2 7.5a13.3 13.3 0 0 1-6.2 4.7c-2.7 1.1-6 1.7-10 1.7a29 29 0 0 1-11.2-2.1 15.8 15.8 0 0 1-6.8-5.8 16.5 16.5 0 0 1-2.4-8.2h8.6a12 12 0 0 0 1.4 4.7 9.7 9.7 0 0 0 3.8 3.4c1.6.7 3.9 1 6.6 1 2 .2 4-.1 5.8-.9a5.9 5.9 0 0 0 2.8-2.4 7 7 0 0 0 .9-3.1c0-1.9-.6-3.3-1.8-4.1-1-1-2.6-1.7-4.3-2l-11.5-2.8c-1.9-.6-3.6-1.4-5.3-2.4a12 12 0 0 1-4-3.8c-1-1.7-1.5-3.7-1.5-5.7 0-2.4.7-4.7 2-6.7a14 14 0 0 1 5.8-4.5c3-1.1 6.1-1.7 9.3-1.6 3.4 0 6.8.6 10 2a14.2 14.2 0 0 1 8.5 12.2h-8.6a8.5 8.5 0 0 0-4-6.1 12 12 0 0 0-5.9-1.2 12 12 0 0 0-4.6.7c-1 .3-2 1-2.7 1.9-.6.9-.9 2-.8 3 0 1.5.5 2.6 1.4 3.4a12 12 0 0 0 4.1 1.7l5.8 1.3Zm24.7-17.6h8.6v44.5h-8.6v-44.5Zm24.8 7.4-1.6-.1-1.3-.2a13 13 0 0 0-7 1.9c-2 1.2-3.6 2.9-4.6 5a16 16 0 0 0-1.7 7.5h-4.2l-2-13h6.3c1-2.6 2.6-5 4.6-6.9 2-1.8 4.4-2.7 7.4-2.7 1.4 0 2.8.1 4.1.4v8.1Zm17.3 38.3a15 15 0 0 1-10.6-3.5c-2.7-2.4-4-5.5-4-9.3 0-2.4.5-4.5 1.3-6.2a12 12 0 0 1 3.9-4.2c1.6-1 3.6-2 5.8-2.7a68 68 0 0 1 7.6-1.8l4.7-1c1.4-.3 2.6-.6 3.6-1a7 7 0 0 0 2.2-1.9c.5-.8.8-1.7.7-2.7 0-1.6-.6-3-1.8-4.1-1.1-1.2-3.3-1.8-6.6-1.8-4 0-6.5.7-8 2-1.5 1.2-2.4 3.4-2.6 6.3h-8.7c.1-2.6 1-5.3 2.3-7.6 1.4-2.3 3.5-4.2 6.3-5.5 2.8-1.4 6.5-2.1 11-2.1 3.1 0 5.8.5 8.3 1.5 2.5 1 4.5 2.5 6 4.7s2.2 5.3 2.2 9.2v20.3c0 1.7.1 3 .5 3.7.2.8.8 1.2 1.6 1.2h1v5.2c-.7.2-1.5.3-2.2.3l-2.1.2c-1.8.1-3.5-.4-5-1.4-1-1-1.7-2.7-2-5.3h-.2a16.9 16.9 0 0 1-6 5.4c-3 1.5-6 2.2-9.2 2Zm1.9-7c2.5 0 4.8-.3 6.8-1.2a11 11 0 0 0 4.8-4c1.2-1.9 1.8-4 1.7-6.4V216l-2.1 1.2-3.4 1-4.2 1c-2.2.4-4.4 1-6.5 1.9a8.4 8.4 0 0 0-3.5 2.6 6.5 6.5 0 0 0-1.1 3.8c0 2.1.6 3.7 1.8 4.9 1.2 1 3 1.6 5.7 1.6Zm4.7-42.6c-2.1 0-4.2-.7-5.8-2.2a8 8 0 0 1-2.2-5.8 7.6 7.6 0 0 1 2.3-5.8 8 8 0 0 1 5.7-2.2 7.8 7.8 0 0 1 7.6 4.9c.4 1 .5 2 .5 3 0 2.5-.7 4.4-2.2 6a8 8 0 0 1-5.9 2Zm0-3.8a4 4 0 0 0 3-1.2c.7-.7 1-1.8 1-3a4 4 0 0 0-1-3 3.8 3.8 0 0 0-3-1.2c-1 0-2 .4-2.8 1.2a4 4 0 0 0-1.1 3c0 1.1.4 2.2 1 3a3.8 3.8 0 0 0 3 1.1Zm59.4-10.2h8.7v62.4h-8.7v-62.4Zm-.1 23.3h2.3v33.8h-2.3a15.5 15.5 0 0 1-7.6 5.5 16 16 0 0 1-6 1 19 19 0 0 1-10.3-2.8c-3-2-5.5-4.7-7-8a28 28 0 0 1-2.7-12.7c0-3.3.5-6.6 1.6-9.8A18.9 18.9 0 0 1 848 194a15.9 15.9 0 0 1 13.6 6.7Zm-12.3 33.2a10.4 10.4 0 0 0 9-4.4 15 15 0 0 0 2.6-5.2c1.4-5 1.1-10.5-.6-15.5a11.2 11.2 0 0 0-11-7.6 10.9 10.9 0 0 0-9.3 4.8c-1 1.6-1.8 3.3-2.3 5.3-1.2 4.7-1 9.7.6 14.4.8 2.3 2.2 4.4 4.1 6a11 11 0 0 0 7 2.2Zm51.4 7.2c-4.7 0-8.7-1-12-3-3.3-2.1-5.8-5-7.5-8.5a28.3 28.3 0 0 1-2.5-12.2c0-3.2.5-6.4 1.5-9.5 1-2.8 2.5-5.4 4.4-7.5a19 19 0 0 1 6.8-4.8c2.8-1 5.9-1.7 9.3-1.7 4.5 0 8.3 1 11.4 2.8 3.1 1.9 5.6 4.6 7.1 8a26 26 0 0 1 2.6 12v1.7l-.1 1.4H883V213h29.8c0-1.8-.3-3.3-.9-4.8a11.2 11.2 0 0 0-6.4-6.4 13 13 0 0 0-5-1c-2.6 0-4.8.5-6.8 1.6a12 12 0 0 0-4.5 4.7 14.2 14.2 0 0 0-1.6 7v5.2c0 2.5.4 4.9 1.4 7 1 2.3 2.5 4.2 4.4 5.6 2.2 1.5 4.8 2.2 7.5 2 2.6 0 4.6-.4 6.2-1.3 2.6-1.5 4.5-3.8 5.4-6.6h8.7a20.5 20.5 0 0 1-10.6 13c-2.7 1.3-6 2-10 2Zm40.5-60v46.3c0 1.7.1 2.8.5 3.6a3 3 0 0 0 1.5 1.8c.7.3 1.8.4 3 .4h1.7l2-.3v6.9c-1.9.3-3.7.5-5.5.5-2.4 0-4.5-.4-6.3-1.1a8 8 0 0 1-4-4 16.8 16.8 0 0 1-1.4-8V181h8.5Zm-15 14.2h23.5v7h-23.5v-7ZM0 217V22.7a22.7 22.7 0 0 1 44.3-6.9L69 93.4a19.4 19.4 0 0 0 37 0l24.6-77.6A22.7 22.7 0 0 1 152.2 0h64.7a22.7 22.7 0 0 1 7 44.3L146.1 69a19.4 19.4 0 1 0 18.6 33.2l37.4-32a22.7 22.7 0 0 1 37.4 18.4l-3.2 64.6a19.4 19.4 0 0 1-31 14.6l-41.5-31a19.4 19.4 0 0 0-30.2 9.5L109 223.9a22.7 22.7 0 0 1-21.6 15.8H22.7A22.7 22.7 0 0 1 0 217Z"/></svg>