<svg xmlns="http://www.w3.org/2000/svg" width="540" height="288" fill="none" viewBox="0 0 540 288">
  <rect width="96" height="272" x="187.4" fill="#FF907A" rx="24" transform="rotate(15 187.4 0)"/>
  <circle cx="167.58" cy="197.6" r="12" fill="#fff" transform="rotate(15 167.58 197.6)"/>
  <path fill="#000" fill-rule="evenodd" d="M160.79 207.5a12 12 0 0 0 5.86-21.86 12 12 0 0 0-5.86 21.86Z" clip-rule="evenodd"/>
  <circle cx="198.49" cy="205.89" r="12" fill="#fff" transform="rotate(15 198.49 205.89)"/>
  <path fill="#000" fill-rule="evenodd" d="M191.7 215.78a12 12 0 0 0 5.86-21.86 12 12 0 0 0-5.86 21.86Z" clip-rule="evenodd"/>
  <path stroke="#000" stroke-linecap="round" stroke-width="3" d="M161.37 220.79s6.24 5.8 14.42 8 16.49.28 16.49.28"/>
  <path fill="#FFDE69" d="M292.19 147.09c6.81-12.54 24.8-12.54 31.62 0l2.17 3.98a18 18 0 0 0 16.27 9.4l4.53-.12c14.27-.37 23.27 15.22 15.82 27.39l-2.37 3.86a18 18 0 0 0 0 18.8l2.37 3.86c7.44 12.17-1.55 27.76-15.82 27.4l-4.53-.13a18 18 0 0 0-16.27 9.4l-2.17 3.98c-6.81 12.54-24.8 12.54-31.62 0l-2.17-3.98a18 18 0 0 0-16.27-9.4l-4.53.12c-14.27.37-23.27-15.22-15.82-27.39l2.37-3.86a18 18 0 0 0 0-18.8l-2.37-3.86c-7.44-12.17 1.55-27.76 15.82-27.4l4.53.13a18 18 0 0 0 16.27-9.4l2.17-3.98Z"/>
  <circle cx="293" cy="194" r="12" fill="#fff"/>
  <path fill="#000" fill-rule="evenodd" d="M297 205.32a12 12 0 0 1 0-22.64 12 12 0 0 1 0 22.64Z" clip-rule="evenodd"/>
  <circle cx="325" cy="194" r="12" fill="#fff"/>
  <path fill="#000" fill-rule="evenodd" d="M329 205.32a12 12 0 0 1 0-22.64 12 12 0 0 1 0 22.64Z" clip-rule="evenodd"/>
  <path fill="#000" d="M312 220.5c0 3.59-5.58 2.5-10 2.5s-8 3.09-8-.5 5.58-6.5 10-6.5 8 .91 8 4.5Z"/>
  <path fill="#ABD4C0" d="M30.23 190.64a13.4 13.4 0 0 1 23.54 0 13.4 13.4 0 0 0 12.1 7A13.4 13.4 0 0 1 77.64 218a13.4 13.4 0 0 0 0 13.98 13.4 13.4 0 0 1-11.77 20.38 13.4 13.4 0 0 0-12.1 6.99 13.4 13.4 0 0 1-23.54 0 13.4 13.4 0 0 0-12.1-7A13.4 13.4 0 0 1 6.36 232a13.4 13.4 0 0 0 0-13.98 13.4 13.4 0 0 1 11.77-20.38 13.4 13.4 0 0 0 12.1-6.99Z"/>
  <circle cx="30" cy="222" r="9" fill="#fff"/>
  <path fill="#000" fill-rule="evenodd" d="M33 230.49a9 9 0 0 0 0-16.98 9 9 0 0 0 0 16.98Z" clip-rule="evenodd"/>
  <circle cx="55" cy="222" r="9" fill="#fff"/>
  <path fill="#000" fill-rule="evenodd" d="M58 230.49a9 9 0 0 0 0-16.98 9 9 0 0 0 0 16.98Z" clip-rule="evenodd"/>
  <path stroke="#000" stroke-linecap="round" stroke-width="3" d="M35 238s1.88 4 8 4 8-4 8-4"/>
  <path fill="#FFC532" d="m116.42 33.7 28.28 42.1 44.42-30.58-18.5 48.21 51.95 12.46-51.35 18.02 20.36 46.12-45.53-25.74-26.55 45.05-5.43-50.12-53.48 10.07 38.76-36.76-40.13-32.5L113 84.3l3.43-50.6Z"/>
  <path stroke="#000" stroke-linecap="round" stroke-width="3" d="M133.44 118.52s1.88 1.57 6.31.38 5.28-3.48 5.28-3.48m-16.28-12.54 9.66-2.6"/>
  <circle cx="123.21" cy="105.39" r="8" fill="#000" transform="rotate(-15 123.2 105.4)"/>
  <circle cx="144.46" cy="99.7" r="8" fill="#000" transform="rotate(-15 144.46 99.7)"/>
  <path fill="#6969AA" d="M463 210h-72v72h144V138h-72v72Z"/>
  <circle cx="487" cy="168" r="9" fill="#fff"/>
  <path fill="#000" fill-rule="evenodd" d="M490 176.49a9 9 0 0 0 0-16.98 9 9 0 0 0 0 16.98Z" clip-rule="evenodd"/>
  <circle cx="512" cy="168" r="9" fill="#fff"/>
  <path fill="#000" fill-rule="evenodd" d="M515 176.49a9 9 0 0 1 0-16.98 9 9 0 0 1 0 16.98Z" clip-rule="evenodd"/>
  <path stroke="#000" stroke-linecap="round" stroke-width="3" d="M492.06 187.1s1.9 2.32 8.1 2.32c6.19 0 8.1-2.31 8.1-2.31"/>
</svg>