<svg width="173" height="160" viewBox="0 0 173 160" fill="none" xmlns="http://www.w3.org/2000/svg">
<path d="M86.1685 0.729248L102.587 48.7134L153.406 30.6618L123.06 72.4455L170.012 97.9197L115.753 102.039L123.482 151.856L86.1685 115.209L48.8545 151.856L56.584 102.039L2.32465 97.9197L49.2772 72.4455L18.9309 30.6618L69.7503 48.7134L86.1685 0.729248Z" fill="#FFC532"/>
<path d="M82.3879 88.4653C82.3879 88.4653 83.7997 90.4653 88.3879 90.4653C92.9762 90.4653 94.3879 88.4653 94.3879 88.4653" stroke="black" stroke-width="3" stroke-linecap="round"/>
<path d="M80.1687 70.7292C83.502 70.7292 86.8354 70.7292 90.1687 70.7292" stroke="black" stroke-width="3" stroke-linecap="round"/>
<circle cx="74.1685" cy="71.7292" r="8" fill="black"/>
<circle cx="96.1682" cy="71.729" r="8" fill="black"/>
</svg>
