<svg xmlns="http://www.w3.org/2000/svg" aria-hidden="true" focusable="false" width="157" height="85" fill="none" viewBox="0 0 157 85">
  <path fill="#068480" d="M156.626 84.02H0C-.103 37.715 34.875.096 78.128 0c43.25-.097 78.397 37.713 78.5 84.02h-.002Z"/>
  <path fill="#fff" d="M115.243 38.374c-.146 7.661-6.469 13.754-14.122 13.608a13.805 13.805 0 0 1-5.619-1.308 13.87 13.87 0 0 1-7.981-12.823 13.873 13.873 0 0 1 8.457-12.514 13.795 13.795 0 0 1 5.664-1.096c7.655.145 13.744 6.473 13.598 14.131l.003.002Z"/>
  <path fill="#000" d="M103.948 38.16a13.883 13.883 0 0 1-8.447 12.515 13.87 13.87 0 0 1-7.981-12.823 13.873 13.873 0 0 1 8.457-12.514c4.795 2.255 8.076 7.177 7.971 12.823Z"/>
  <path fill="#fff" d="M78.28 37.677c-.145 7.66-6.468 13.754-14.121 13.608a13.807 13.807 0 0 1-5.62-1.308 13.87 13.87 0 0 1-7.981-12.823 13.873 13.873 0 0 1 8.458-12.514 13.795 13.795 0 0 1 5.664-1.096c7.655.145 13.743 6.473 13.598 14.13l.002.003Z"/>
  <path fill="#000" d="M66.987 37.465a13.88 13.88 0 0 1-8.446 12.515 13.87 13.87 0 0 1-7.981-12.823 13.873 13.873 0 0 1 8.457-12.514c4.794 2.254 8.075 7.177 7.97 12.822Z"/>
  <path stroke="#000" stroke-linecap="round" stroke-width="3.5" d="M97.124 63.116s-1.538 6.235-11.247 6.207c-9.71-.028-12.025-6.273-12.025-6.273"/>
</svg>