<svg xmlns="http://www.w3.org/2000/svg" aria-hidden="true" focusable="false" width="172" height="99" fill="none" viewBox="0 0 172 99">
  <path fill="#EF9900" d="M133 .5H39C17.46.5 0 17.96 0 39.5v20.404c0 21.54 17.46 39 39 39h94c21.539 0 39-17.46 39-39V39.5c0-21.54-17.461-39-39-39Z"/>
  <path fill="#fff" d="M135.327 53.921c-5.349 8.872-16.871 11.731-25.734 6.388a18.681 18.681 0 0 1-5.695-5.331c-.264-.37-.511-.753-.739-1.143-3.41-5.747-3.63-13.137.062-19.267 3.696-6.129 10.335-9.384 17.008-9.055.45.019.905.058 1.355.119a18.646 18.646 0 0 1 7.373 2.546c8.865 5.345 11.717 16.87 6.369 25.739l.001.004Z"/>
  <path fill="#000" d="M122.247 46.034c-3.942 6.538-11.242 9.814-18.35 8.944-.265-.37-.511-.753-.74-1.143-3.41-5.747-3.63-13.138.063-19.268 3.695-6.128 10.334-9.384 17.008-9.054.45.018.905.058 1.355.119 4.089 5.88 4.603 13.863.664 20.402Z"/>
  <path fill="#fff" d="M85.352 52.978c-5.35 8.871-16.872 11.731-25.735 6.387a18.667 18.667 0 0 1-5.694-5.33c-.265-.37-.512-.753-.74-1.143-3.41-5.747-3.63-13.138.063-19.268 3.695-6.128 10.334-9.384 17.008-9.054.45.018.905.058 1.355.119a18.65 18.65 0 0 1 7.372 2.545c8.866 5.346 11.717 16.87 6.37 25.74v.004Z"/>
  <path fill="#000" d="M72.272 45.097c-3.942 6.538-11.242 9.813-18.35 8.943-.265-.37-.511-.753-.74-1.143-3.41-5.747-3.63-13.137.063-19.267 3.695-6.129 10.334-9.384 17.008-9.055.45.019.905.058 1.355.12 4.09 5.88 4.603 13.863.664 20.402Z"/>
  <path stroke="#000" stroke-linecap="round" stroke-width="6" d="M106.408 75.863s-6.846 9.253-18.365 7.298c-11.52-1.956-15.285-7.378-15.285-7.378"/>
</svg>