<svg width="205" height="72" viewBox="0 0 205 72" fill="none" xmlns="http://www.w3.org/2000/svg">
<rect x="204.5" width="72" height="204" rx="18" transform="rotate(90 204.5 0)" fill="#FF907A"/>
<circle cx="57.5002" cy="24.0005" r="9" transform="rotate(90 57.5002 24.0005)" fill="white"/>
<path d="M65.9868 21.0005C64.7512 24.4958 61.4189 27.0004 57.5005 27.0005C53.5822 27.0005 50.2509 24.4956 49.0151 21.0005C50.2509 17.5054 53.5822 15.0005 57.5005 15.0005C61.4189 15.0006 64.7512 17.5052 65.9868 21.0005Z" fill="black"/>
<circle cx="57.5" cy="48" r="9" transform="rotate(90 57.5 48)" fill="white"/>
<path d="M65.9866 45C64.751 48.4953 61.4186 50.9999 57.5002 51C53.5819 51 50.2506 48.4951 49.0149 45C50.2506 41.5049 53.5819 39 57.5002 39C61.4186 39.0001 64.751 41.5047 65.9866 45Z" fill="black"/>
<path d="M37 29C37 29 34 32.2941 34 36C34 39.7059 37 43 37 43" stroke="black" stroke-width="3" stroke-linecap="round"/>
</svg>
