<?xml version="1.0" encoding="UTF-8" standalone="no"?>
<svg
   viewBox="0 0 445.86484 438.85715"
   version="1.1"
   id="svg11"
   sodipodi:docname="universal-access-solid (1).svg"
   width="445.86484"
   height="438.85715"
   inkscape:version="1.1.1 (3bf5ae0d25, 2021-09-20)"
   xmlns:inkscape="http://www.inkscape.org/namespaces/inkscape"
   xmlns:sodipodi="http://sodipodi.sourceforge.net/DTD/sodipodi-0.dtd"
   xmlns="http://www.w3.org/2000/svg"
   xmlns:svg="http://www.w3.org/2000/svg">
  <defs
     id="defs15" />
  <sodipodi:namedview
     id="namedview13"
     pagecolor="#ffffff"
     bordercolor="#666666"
     borderopacity="1.0"
     inkscape:pageshadow="2"
     inkscape:pageopacity="0.0"
     inkscape:pagecheckerboard="0"
     showgrid="false"
     fit-margin-top="0"
     fit-margin-left="0"
     fit-margin-right="0"
     fit-margin-bottom="0"
     inkscape:zoom="1.1416016"
     inkscape:cx="122.19675"
     inkscape:cy="385.86142"
     inkscape:window-width="2560"
     inkscape:window-height="1377"
     inkscape:window-x="1432"
     inkscape:window-y="974"
     inkscape:window-maximized="1"
     inkscape:current-layer="svg11" />
  <ellipse
     style="fill:#c30000;fill-opacity:1;fill-rule:evenodd"
     id="path822"
     cx="222.93242"
     cy="219.42857"
     rx="222.93242"
     ry="219.42857" />
  <!--! Font Awesome Pro 6.0.0 by @fontawesome - https://fontawesome.com License - https://fontawesome.com/license (Commercial License) Copyright 2022 Fonticons, Inc. -->
  <path
     d="m 222.93811,51.428574 c 22.09,0 40,17.909995 40,39.999995 0,22.090001 -17.9,40.000001 -40,40.000001 -22.1,0 -40,-17.9 -40,-40.000001 0,-22.1 17.9,-39.999995 40,-39.999995 z m 118.6,135.099996 -59.3,16.9 c -3.7,1.1 -7.5,1.6 -11.3,2.4 v 62.32 l 30.64,87.34 c 4.391,12.5 -2.188,26.19 -14.69,30.59 -2.65,0.95 -5.35,1.35 -7.95,1.35 -9.906,0 -19.19,-6.188 -22.64,-16.06 l -25.85,-70.65 c -2.562,-7.002 -12.46,-7.002 -15.03,0 l -25.85,70.65 c -3.43,9.86 -12.73,16.06 -22.63,16.06 -2.641,0 -5.312,-0.4375 -7.953,-1.344 -12.5,-4.406 -19.08,-18.09 -14.69,-30.59 l 30.643,-87.366 v -62.3 c -3.8,-0.8 -7.6,-1.3 -11.3,-2.4 l -59.3,-16.9 c -12.700001,-3.7 -20.100001,-16.9 -16.500001,-29.7 3.6,-12.8 17.000001,-20.2 29.700001,-16.5 l 59.25,16.94 c 30.17,8.623 62.15,8.623 92.31,0 l 59.25,-16.94 c 12.7,-3.781 26.02,3.719 29.67,16.47 3.62,12.83 -3.78,26.03 -16.48,29.73 z"
     id="path9"
     sodipodi:nodetypes="sssssccccccsccccsccccccscccccc"
     style="fill:#ffffff" />
</svg>
