<svg xmlns="http://www.w3.org/2000/svg" width="1202.84" height="183.168" viewBox="0 0 318.251 48.463">
  <path fill="#000" d="M176.18 8.957c-8.521 0-15.427 6.906-15.427 15.427 0 8.52 6.906 15.427 15.426 15.427 8.521 0 15.427-6.906 15.427-15.427 0-8.52-6.906-15.427-15.427-15.427zm0 4.821a2.41 2.41 0 1 1 0 4.821 2.41 2.41 0 0 1 0-4.82zm7.146 8.141-3.573 1.019c-.223.066-.452.096-.681.144v3.756l1.846 5.263a1.446 1.446 0 1 1-2.728.957l-1.558-4.258a.482.482 0 0 0-.906 0l-1.558 4.258a1.445 1.445 0 1 1-2.728-.957l1.847-5.264v-3.755c-.23-.048-.458-.078-.681-.144l-3.574-1.019a1.453 1.453 0 0 1-.994-1.79 1.443 1.443 0 0 1 1.79-.994l3.57 1.021c1.818.52 3.745.52 5.563 0l3.57-1.02a1.44 1.44 0 0 1 1.788.992 1.452 1.452 0 0 1-.993 1.791z"/>
  <g>
    <path fill="#000" d="M-214.053-56.693v-35.56h8.28l14.733 24.181h-4.369l14.326-24.18h8.28l.102 35.56h-9.246l-.102-21.489h1.575l-10.719 17.983h-4.47l-11.024-17.983h1.93v21.488zM-151.957-56.693v-5.13l-.66-1.27v-9.45q0-2.285-1.423-3.504-1.371-1.27-4.42-1.27-1.98 0-4.013.66-2.032.61-3.454 1.727l-3.251-6.553q2.337-1.524 5.588-2.337 3.302-.863 6.553-.863 6.706 0 10.363 3.098 3.709 3.048 3.709 9.602v15.29zm-8.128.458q-3.302 0-5.588-1.118t-3.505-3.048q-1.169-1.93-1.169-4.318 0-2.54 1.27-4.369 1.321-1.88 4.014-2.845 2.692-1.016 6.96-1.016h6.502v5.03h-5.182q-2.337 0-3.302.762-.914.762-.914 2.032t.965 2.032q.965.762 2.641.762 1.575 0 2.845-.762 1.32-.813 1.93-2.439l1.321 3.556q-.762 2.845-2.997 4.318-2.184 1.423-5.791 1.423zM-121.133-84.683q3.2 0 5.791 1.32 2.59 1.27 4.064 3.963 1.524 2.692 1.524 6.96v15.747h-9.652v-14.173q0-2.946-1.22-4.267-1.168-1.372-3.301-1.372-1.524 0-2.794.712-1.27.66-1.981 2.082-.712 1.423-.712 3.709v13.31h-9.652v-27.534h9.195v7.823l-1.778-2.286q1.575-2.997 4.318-4.47 2.743-1.524 6.198-1.524zM-92.087-46.38q-3.963 0-7.57-.915-3.556-.914-6.096-2.692l3.506-6.756q1.727 1.371 4.267 2.133 2.59.813 5.03.813 3.91 0 5.638-1.727 1.727-1.677 1.727-4.928v-3.251l.508-7.722-.05-7.772v-5.03h9.194v22.505q0 7.823-4.216 11.583-4.217 3.759-11.938 3.759zm-1.677-11.735q-3.657 0-6.756-1.626-3.048-1.676-4.928-4.622-1.829-2.998-1.829-7.062t1.83-7.01q1.879-2.997 4.927-4.623 3.099-1.625 6.756-1.625 3.505 0 5.995 1.422 2.489 1.372 3.759 4.318 1.32 2.946 1.32 7.518 0 4.572-1.32 7.519-1.27 2.946-3.76 4.369-2.489 1.422-5.994 1.422zm2.286-7.67q1.727 0 3.048-.712 1.372-.711 2.134-1.981.813-1.27.813-2.947 0-1.676-.813-2.946-.762-1.27-2.134-1.93-1.32-.712-3.048-.712-1.727 0-3.099.712-1.371.66-2.184 1.93-.762 1.27-.762 2.946 0 1.677.762 2.947.813 1.27 2.184 1.981 1.372.711 3.1.711zM-69.755-56.693V-83.92q0-4.979 2.946-7.925 2.997-2.997 8.534-2.997 1.778 0 3.506.355 1.727.356 2.895 1.067l-2.387 6.807q-.61-.355-1.372-.559-.762-.254-1.524-.254-1.524 0-2.388.915-.812.863-.812 2.692v1.981l.254 4.014v21.132zm-4.014-19.304v-7.213h19.965v7.213zM-20.054-56.693v-37.693h9.652v37.693zM5.639-56.235q-3.76 0-6.858-1.728-3.048-1.778-4.877-4.927-1.829-3.2-1.829-7.62 0-4.369 1.83-7.519 1.828-3.2 4.876-4.927 3.099-1.727 6.858-1.727 3.556 0 5.994 1.524 2.49 1.524 3.76 4.673 1.27 3.15 1.27 7.976 0 4.927-1.22 8.077-1.219 3.15-3.657 4.674-2.439 1.524-6.147 1.524zm2.032-7.671q1.626 0 2.896-.762 1.32-.762 2.082-2.235.762-1.524.762-3.607t-.762-3.505q-.762-1.474-2.082-2.236-1.27-.762-2.896-.762-1.676 0-2.997.762-1.27.762-2.032 2.236-.762 1.422-.762 3.505t.762 3.607q.762 1.473 2.032 2.235 1.32.762 2.997.762zm6.045 7.213v-4.724l.051-9.093-.508-9.093v-14.783h9.652v37.693z" transform="translate(214.053 94.843)"/>
    <path fill="#000" d="M38.498-56.76v-15.557h2.104v15.558zm1.067-18.994q-.652 0-1.097-.445-.444-.444-.444-1.066 0-.623.444-1.038.445-.444 1.097-.444.652 0 1.096.415.445.415.445 1.037 0 .652-.445 1.096-.415.445-1.096.445zM73.154-72.465q1.896 0 3.29.741 1.422.711 2.192 2.193.8 1.482.8 3.734v9.038h-2.104v-8.83q0-2.46-1.185-3.705-1.156-1.274-3.29-1.274-1.6 0-2.785.681-1.156.652-1.808 1.926-.622 1.245-.622 3.023v8.179h-2.104v-8.83q0-2.46-1.185-3.705-1.186-1.274-3.32-1.274-1.57 0-2.755.681-1.185.652-1.837 1.926-.623 1.245-.623 3.023v8.179h-2.104v-15.558h2.016v4.208l-.326-.74q.71-1.69 2.281-2.638 1.6-.978 3.764-.978 2.282 0 3.882 1.156 1.6 1.126 2.074 3.408l-.83-.326q.682-1.897 2.4-3.053 1.749-1.185 4.179-1.185zM94.116-56.76v-3.437l-.089-.563v-5.749q0-1.985-1.126-3.052-1.096-1.067-3.289-1.067-1.511 0-2.874.504-1.364.504-2.312 1.334l-.948-1.57q1.185-1.008 2.845-1.542 1.66-.563 3.496-.563 3.023 0 4.653 1.511 1.66 1.482 1.66 4.534v9.66zm-5.363.149q-1.749 0-3.053-.563-1.274-.593-1.955-1.6-.682-1.037-.682-2.37 0-1.216.563-2.194.593-1.007 1.897-1.6 1.333-.622 3.556-.622h5.363v1.57h-5.304q-2.252 0-3.141.8-.86.8-.86 1.986 0 1.333 1.038 2.133 1.037.8 2.904.8 1.778 0 3.052-.8 1.304-.83 1.896-2.37l.474 1.452q-.592 1.54-2.074 2.46-1.452.918-3.674.918zM101.591-56.76v-15.557h2.104v15.558zm1.067-18.994q-.652 0-1.096-.445-.445-.444-.445-1.066 0-.623.445-1.038.444-.444 1.096-.444.652 0 1.096.415.445.415.445 1.037 0 .652-.445 1.096-.414.445-1.096.445z" transform="translate(214.053 94.843)"/>
  </g>
</svg>