<svg xmlns="http://www.w3.org/2000/svg" width="895.61" height="183.168" viewBox="0 0 236.964 48.463">
  <path fill="#000" d="M176.18 8.957c-8.521 0-15.427 6.906-15.427 15.427 0 8.52 6.906 15.427 15.426 15.427 8.521 0 15.427-6.906 15.427-15.427 0-8.52-6.906-15.427-15.427-15.427zm0 4.821a2.41 2.41 0 1 1 0 4.821 2.41 2.41 0 0 1 0-4.82zm7.146 8.141-3.573 1.019c-.223.066-.452.096-.681.144v3.756l1.846 5.263a1.446 1.446 0 1 1-2.728.957l-1.558-4.258a.482.482 0 0 0-.906 0l-1.558 4.258a1.445 1.445 0 1 1-2.728-.957l1.847-5.264v-3.755c-.23-.048-.458-.078-.681-.144l-3.574-1.019a1.453 1.453 0 0 1-.994-1.79 1.443 1.443 0 0 1 1.79-.994l3.57 1.021c1.818.52 3.745.52 5.563 0l3.57-1.02a1.44 1.44 0 0 1 1.788.992 1.452 1.452 0 0 1-.993 1.791z"/>
  <g>
    <path fill="#000" d="M-214.053-56.693v-35.56h8.28l14.733 24.181h-4.369l14.326-24.18h8.28l.102 35.56h-9.246l-.102-21.489h1.575l-10.719 17.983h-4.47l-11.024-17.983h1.93v21.488zm62.096 0v-5.13l-.66-1.27v-9.45q0-2.285-1.423-3.504-1.371-1.27-4.42-1.27-1.98 0-4.013.66-2.032.61-3.454 1.727l-3.251-6.553q2.337-1.524 5.588-2.337 3.302-.863 6.553-.863 6.706 0 10.363 3.098 3.709 3.048 3.709 9.602v15.29zm-8.128.458q-3.302 0-5.588-1.118t-3.505-3.048q-1.169-1.93-1.169-4.318 0-2.54 1.27-4.369 1.321-1.88 4.014-2.845 2.692-1.016 6.96-1.016h6.502v5.03h-5.182q-2.337 0-3.302.762-.914.762-.914 2.032t.965 2.032q.965.762 2.641.762 1.575 0 2.845-.762 1.32-.813 1.93-2.439l1.321 3.556q-.762 2.845-2.997 4.318-2.184 1.423-5.791 1.423zm38.952-28.448q3.2 0 5.791 1.32 2.59 1.27 4.064 3.963 1.524 2.692 1.524 6.96v15.747h-9.652v-14.173q0-2.946-1.22-4.267-1.168-1.372-3.301-1.372-1.524 0-2.794.712-1.27.66-1.981 2.082-.712 1.423-.712 3.709v13.31h-9.652v-27.534h9.195v7.823l-1.778-2.286q1.575-2.997 4.318-4.47 2.743-1.524 6.198-1.524zm29.046 38.303q-3.963 0-7.57-.915-3.556-.914-6.096-2.692l3.506-6.756q1.727 1.371 4.267 2.133 2.59.813 5.03.813 3.91 0 5.638-1.727 1.727-1.677 1.727-4.928v-3.251l.508-7.722-.05-7.772v-5.03h9.194v22.505q0 7.823-4.216 11.583-4.217 3.759-11.938 3.759zm-1.677-11.735q-3.657 0-6.756-1.626-3.048-1.676-4.928-4.622-1.829-2.998-1.829-7.062t1.83-7.01q1.879-2.997 4.927-4.623 3.099-1.625 6.756-1.625 3.505 0 5.995 1.422 2.489 1.372 3.759 4.318 1.32 2.946 1.32 7.518 0 4.572-1.32 7.519-1.27 2.946-3.76 4.369-2.489 1.422-5.994 1.422zm2.286-7.67q1.727 0 3.048-.712 1.372-.711 2.134-1.981.813-1.27.813-2.947 0-1.676-.813-2.946-.762-1.27-2.134-1.93-1.32-.712-3.048-.712-1.727 0-3.099.712-1.371.66-2.184 1.93-.762 1.27-.762 2.946 0 1.677.762 2.947.813 1.27 2.184 1.981 1.372.711 3.1.711zm21.723 9.092V-83.92q0-4.979 2.946-7.925 2.997-2.997 8.534-2.997 1.778 0 3.506.355 1.727.356 2.895 1.067l-2.387 6.807q-.61-.355-1.372-.559-.762-.254-1.524-.254-1.524 0-2.388.915-.812.863-.812 2.692v1.981l.254 4.014v21.132zm-4.014-19.304v-7.213h19.965v7.213zm53.715 19.304v-37.693h9.652v37.693zm25.693.458q-3.76 0-6.858-1.728-3.048-1.778-4.877-4.927-1.829-3.2-1.829-7.62 0-4.369 1.83-7.519 1.828-3.2 4.876-4.927 3.099-1.727 6.858-1.727 3.556 0 5.994 1.524 2.49 1.524 3.76 4.673 1.27 3.15 1.27 7.976 0 4.927-1.22 8.077-1.219 3.15-3.657 4.674-2.439 1.524-6.147 1.524zm2.032-7.671q1.626 0 2.896-.762 1.32-.762 2.082-2.235.762-1.524.762-3.607t-.762-3.505q-.762-1.474-2.082-2.236-1.27-.762-2.896-.762-1.676 0-2.997.762-1.27.762-2.032 2.236-.762 1.422-.762 3.505t.762 3.607q.762 1.473 2.032 2.235 1.32.762 2.997.762zm6.045 7.213v-4.724l.051-9.093-.508-9.093v-14.783h9.652v37.693z" transform="translate(214.053 94.843)"/>
    <path fill="#000" d="M-50.495-46.57v-5.927h.801v5.927zm.406-7.236q-.248 0-.418-.17-.169-.169-.169-.406 0-.237.17-.395.169-.17.417-.17.249 0 .418.159.17.158.17.395 0 .248-.17.417-.158.17-.418.17zm12.893 1.253q.723 0 1.253.282.542.271.836.835.304.565.304 1.423v3.443h-.801v-3.364q0-.937-.452-1.411-.44-.486-1.253-.486-.61 0-1.06.26-.441.248-.69.734-.237.474-.237 1.151v3.116h-.801v-3.364q0-.937-.452-1.411-.451-.486-1.264-.486-.598 0-1.05.26-.451.248-.7.734-.237.474-.237 1.151v3.116h-.801v-5.927h.767v1.603l-.124-.282q.271-.643.87-1.005.609-.372 1.433-.372.87 0 1.479.44.61.43.79 1.298l-.316-.124q.26-.722.914-1.163.666-.451 1.592-.451zm8.236 5.983v-1.31l-.034-.214v-2.19q0-.756-.429-1.163-.418-.406-1.253-.406-.576 0-1.095.192-.52.192-.88.508l-.362-.599q.452-.383 1.084-.587.632-.214 1.332-.214 1.151 0 1.772.576.633.564.633 1.727v3.68zm-2.043.056q-.666 0-1.163-.214-.486-.226-.745-.61-.26-.395-.26-.903 0-.463.215-.835.225-.384.722-.61.508-.237 1.355-.237h2.043v.598h-2.02q-.859 0-1.197.305-.328.305-.328.757 0 .508.395.812.396.305 1.107.305.677 0 1.163-.305.496-.316.722-.903l.18.553q-.225.587-.79.937-.553.35-1.4.35zm4.939-.056v-5.927h.802v5.927zm.406-7.236q-.248 0-.417-.17-.17-.169-.17-.406 0-.237.17-.395.169-.17.417-.17.249 0 .418.159.17.158.17.395 0 .248-.17.417-.158.17-.418.17z" transform="translate(214.053 94.843)"/>
  </g>
</svg>