<svg width="144" height="144" viewBox="0 0 144 144" fill="none" xmlns="http://www.w3.org/2000/svg">
<path d="M72 72H0V144H144V0H72V72Z" fill="#6A6ABF"/>
<circle cx="9" cy="9" r="9" transform="matrix(-0.965926 -0.258819 -0.258819 0.965926 132.023 23.6357)" fill="white"/>
<path d="M120.298 21.0267C116.602 21.3156 113.321 23.886 112.306 27.6709C111.293 31.4556 112.85 35.3209 115.906 37.4191C119.602 37.13 122.883 34.5613 123.898 30.7768C124.912 26.9918 123.355 23.1249 120.298 21.0267Z" fill="black"/>
<circle cx="9" cy="9" r="9" transform="matrix(0.965926 -0.258819 -0.258819 -0.965926 89.636 41.0225)" fill="white"/>
<path d="M101.094 37.4202C104.15 35.322 105.707 31.4551 104.693 27.6702C103.679 23.8856 100.397 21.3169 96.7018 21.0278C93.6458 23.126 92.0883 26.9913 93.1022 30.776C94.1163 34.5609 97.3982 37.1313 101.094 37.4202Z" fill="black"/>
<path d="M96.0942 50.9932C96.0942 50.9932 98.9178 55.3936 108.094 55.3936C117.271 55.3936 120.094 50.9932 120.094 50.9932" stroke="black" stroke-width="3" stroke-linecap="round"/>
</svg>
