<?xml version="1.0" encoding="UTF-8" standalone="no"?>
<svg
   width="74.672562"
   height="52.754498"
   viewBox="0 0 239.12999 168.21717"
   version="1.1"
   id="svg18"
   xmlns="http://www.w3.org/2000/svg"
   xmlns:svg="http://www.w3.org/2000/svg">
  <defs
     id="defs3">
    <path
       id="nav-logo-red_svg__a"
       d="M 22.4,43.42 V 0.69 H 0.57 v 42.73 h 21.85 z" />
  </defs>
  <g
     fill="none"
     id="g16"
     transform="translate(0,-0.36141198)">
    <path
       fill="#c30000"
       d="M 125.3,168.94 A 84.470002,84.470002 0 1 1 125.34,0 84.470001,84.470001 0 0 1 125.32,168.94 Z M 0,121.36 17.27,78.63 h 16.58 l -17.24,42.73 z m 213.04,0 17.05,-42.73 h 9.04 l -17.04,42.73 z"
       id="path5"
       style="fill:#ffffff" />
    <g
       transform="translate(246,77.94)"
       id="g12">
      <mask
         id="nav-logo-red_svg__b"
         fill="#ffffff">
        <use
           href="#nav-logo-red_svg__a"
           id="use7"
           x="0"
           y="0"
           width="100%"
           height="100%" />
      </mask>
      <path
         fill="#c30000"
         d="M 0.56,43.42 17.6,0.69 h 4.8 L 5.37,43.42 Z"
         mask="url(#nav-logo-red_svg__b)"
         id="path10" />
    </g>
    <path
       fill="#FEFEFE"
       d="m 197.36,78.63 h -15.02 c 0,0 -1.03,0 -1.4,0.91 l -8.3,25.44 -8.31,-25.44 c -0.37,-0.91 -1.4,-0.91 -1.4,-0.91 h -28.88 c -0.62,0 -1.15,0.52 -1.15,1.14 v 8.64 c 0,-6.85 -7.29,-9.78 -11.56,-9.78 -9.56,0 -15.96,6.3 -17.96,15.87 -0.1,-6.35 -0.63,-8.63 -2.34,-10.96 a 11,11 0 0 0 -3.16,-2.9 c -2.55,-1.48 -4.84,-2.01 -9.75,-2.01 h -5.77 c 0,0 -1.04,0 -1.41,0.91 L 75.7,92.56 V 79.77 c 0,-0.62 -0.52,-1.14 -1.15,-1.14 H 61.2 c 0,0 -1.03,0 -1.4,0.91 l -5.47,13.53 c 0,0 -0.54,1.36 0.7,1.36 h 5.14 v 25.78 c 0,0.64 0.5,1.15 1.14,1.15 h 13.24 c 0.63,0 1.15,-0.5 1.15,-1.15 V 94.43 h 5.16 c 2.96,0 3.58,0.08 4.74,0.62 0.69,0.26 1.32,0.79 1.66,1.4 0.7,1.31 0.87,2.9 0.87,7.54 v 16.22 c 0,0.64 0.51,1.15 1.15,1.15 h 12.69 c 0,0 1.43,0 2,-1.42 l 2.8,-6.95 c 3.75,5.24 9.9,8.37 17.55,8.37 h 1.67 c 0,0 1.44,0 2.02,-1.42 l 4.9,-12.13 v 12.4 c 0,0.64 0.52,1.15 1.14,1.15 H 147 c 0,0 1.43,0 2,-1.42 0,0 5.19,-12.86 5.2,-12.96 h 0.01 c 0.2,-1.07 -1.15,-1.07 -1.15,-1.07 h -4.62 V 83.85 l 14.54,36.1 c 0.57,1.4 2,1.4 2,1.4 h 15.3 c 0,0 1.44,0 2.01,-1.4 L 198.42,80 c 0.56,-1.38 -1.06,-1.38 -1.06,-1.38 z m -64.46,27.28 h -8.7 a 6.28,6.28 0 1 1 0,-12.55 h 2.44 a 6.29,6.29 0 0 1 6.26,6.28 z"
       id="path14"
       style="fill:#c30000;fill-opacity:1" />
  </g>
</svg>
