<svg width="83" height="76" viewBox="0 0 83 76" fill="none" xmlns="http://www.w3.org/2000/svg">
<path d="M48.4639 2.11385C57.4871 -3.40885 69.0419 3.2623 68.7707 13.838C68.6422 18.8493 71.333 23.5099 75.7372 25.9042C85.0316 30.9573 85.0316 44.2996 75.7372 49.3526C71.333 51.747 68.6422 56.4075 68.7707 61.4188C69.0419 71.9945 57.4871 78.6657 48.4639 73.143C44.1882 70.5261 38.8066 70.5261 34.531 73.143C25.5077 78.6657 13.953 71.9945 14.2241 61.4188C14.3526 56.4075 11.6618 51.747 7.25768 49.3526C-2.03674 44.2996 -2.03674 30.9573 7.25769 25.9042C11.6618 23.5099 14.3526 18.8493 14.2241 13.838C13.953 3.2623 25.5077 -3.40885 34.531 2.11385C38.8066 4.73076 44.1882 4.73076 48.4639 2.11385Z" fill="#ABD4C0"/>
<circle cx="8.96865" cy="8.96865" r="8.96865" transform="matrix(-1 8.74228e-08 8.74228e-08 1 64.4585 25.375)" fill="white"/>
<path d="M52.501 25.8877C49.0177 27.1189 46.5215 30.4388 46.5215 34.3438C46.5215 38.2487 49.0177 41.5686 52.501 42.7998C55.9837 41.5682 58.4795 38.2483 58.4795 34.3438C58.4795 30.4392 55.9837 27.1193 52.501 25.8877Z" fill="black"/>
<circle cx="8.96865" cy="8.96865" r="8.96865" transform="matrix(-1 -8.14215e-08 -8.14215e-08 1 39.5457 25.3755)" fill="white"/>
<path d="M27.5881 25.8882C24.1048 27.1194 21.6086 30.4393 21.6086 34.3442C21.6086 38.2492 24.1048 41.5691 27.5881 42.8003C31.0708 41.5687 33.5666 38.2487 33.5666 34.3442C33.5667 30.4397 31.0708 27.1198 27.5881 25.8882Z" fill="black"/>
<path d="M34.6829 51.9619C34.6829 51.9619 37.1106 55.638 43.144 54.7641C49.1774 53.8903 50.4625 49.6766 50.4625 49.6766" stroke="black" stroke-width="3" stroke-linecap="round"/>
</svg>
