<svg xmlns="http://www.w3.org/2000/svg" aria-hidden="true" focusable="false" width="160" height="133" fill="none" viewBox="0 0 160 133">
  <path fill="#F7ABC5" d="M14.976 132.011c-5.463-.032-18.166.893-14.233-7.561a264.757 264.757 0 0 1 11.324-22.12A865.48 865.48 0 0 1 29.15 73.434c12.23-19.81 25.421-38.887 39.043-57.741h-.013c.07-.083.152-.159.235-.235 2.373-3.973 5.55-7.605 8.31-11.313.722-.968 1.47-1.961 2.52-2.55 7.856-4.384 17.255 16.027 20.35 20.697a1212.745 1212.745 0 0 1 19.598 30.547 1238.19 1238.19 0 0 1 31.472 53.623c2.792 5.049 8.368 13.483 9.261 19.279.323 2.12-.424 4.555-2.317 5.561-1.114.595-2.306.702-3.566.709H14.975Z"/>
  <path stroke="#000" stroke-linecap="round" stroke-width="5" d="M99.239 96.259s.99 8.651-9.609 10.47c-10.599 1.818-14.384-4.87-14.384-4.87"/>
  <path fill="#fff" d="M69.809 54.068c-6.914-1.853-14.022 2.248-15.873 9.157a12.892 12.892 0 0 0-.28 5.384 12.96 12.96 0 0 0 9.45 10.483 12.96 12.96 0 0 0 15.875-9.156c1.851-6.91-2.254-14.015-9.168-15.867l-.004-.001Z"/>
  <path fill="#000" d="M67.077 64.263a12.964 12.964 0 0 0-13.421 4.345 12.96 12.96 0 0 0 9.45 10.483 12.96 12.96 0 0 0 13.425-4.353 12.967 12.967 0 0 0-9.45-10.474l-.004-.001Z"/>
  <path fill="#fff" d="M98.952 54.068c-6.914-1.853-14.022 2.248-15.873 9.157a12.89 12.89 0 0 0-.28 5.384 12.96 12.96 0 0 0 9.45 10.483 12.96 12.96 0 0 0 15.875-9.156c1.851-6.91-2.254-14.015-9.168-15.867l-.004-.001Z"/>
  <path fill="#000" d="M96.22 64.263a12.966 12.966 0 0 0-13.422 4.345 12.96 12.96 0 0 0 9.45 10.483 12.96 12.96 0 0 0 13.426-4.353 12.967 12.967 0 0 0-9.45-10.474l-.004-.001Z"/>
</svg>