<svg xmlns="http://www.w3.org/2000/svg" xml:space="preserve" width="51.8" height="51.7">
  <path fill="#ffffff" d="M25.9 51.7C11.6 51.7 0 40.1 0 25.8 0 11.6 11.6 0 25.9 0c14.3 0 25.9 11.6 25.9 25.9 0 14.3-11.6 25.8-25.9 25.8Zm22-27.6h-4.6s-.3 0-.4.3l-2.5 7.8-2.5-7.8c-.1-.3-.4-.3-.4-.3h-8.8c-.2 0-.4.2-.4.4v2.6c0-2.1-2.2-3-3.5-3-2.9 0-4.9 1.9-5.5 4.9 0-1.9-.2-2.6-.7-3.4-.2-.3-.6-.6-1-.9-.8-.5-1.5-.6-3-.6h-1.8s-.3 0-.4.3l-1.6 4v-3.9c0-.2-.2-.4-.4-.4H6.3s-.3 0-.4.3l-1.7 4.1s-.2.4.2.4H6v7.9c0 .2.2.4.4.4h4.1c.2 0 .4-.2.4-.4v-7.9h1.6c.9 0 1.1 0 1.5.2.2.1.4.2.5.4.2.4.3.9.3 2.3v5c0 .2.2.4.4.4h3.9s.4 0 .6-.4l.9-2.1c1.1 1.6 3 2.6 5.4 2.6h.5s.4 0 .6-.4l1.5-3.7V37c0 .2.2.4.4.4h4s.4 0 .6-.4c0 0 1.6-3.9 1.6-4 .1-.3-.4-.3-.4-.3h-1.4v-6.8L37.9 37c.2.4.6.4.6.4h4.7s.4 0 .6-.4l4.9-12.2c-.3-.7-.8-.7-.8-.7Zm-19.7 8.3h-2.7c-1.1 0-1.9-.9-1.9-1.9 0-1.1.9-1.9 1.9-1.9h.7c1.1 0 1.9.9 1.9 1.9v1.9z"/>
</svg>