<svg xmlns="http://www.w3.org/2000/svg" width="1920" height="1080" fill="none" viewBox="0 0 1920 1080">
  <path fill="#FFE2C4" d="M0 0h1920v1080H0z"/>
  <path fill="#5F5FA9" d="M1398 1080V816.464h255.93s.32-229.441 0-257.464H1920v521h-522Z"/>
  <path fill="#fff" d="M1857.5 646.967c0 18.25-14.79 33.052-33.03 33.052a32.85 32.85 0 0 1-13.44-2.867 25.48 25.48 0 0 1-2.15-1.055c-10.37-5.568-17.43-16.523-17.43-29.13 0-12.606 7.06-23.561 17.43-29.129.7-.379 1.41-.736 2.15-1.055a32.834 32.834 0 0 1 13.44-2.867c18.24 0 33.03 14.797 33.03 33.051Z"/>
  <path fill="#000" d="M1830.59 646.966c0 13.454-8.04 25.032-19.56 30.185-.73-.32-1.45-.672-2.15-1.055-10.37-5.568-17.43-16.523-17.43-29.13s7.06-23.562 17.43-29.13c.7-.378 1.42-.735 2.15-1.055 11.52 5.153 19.56 16.731 19.56 30.185Z"/>
  <path fill="#fff" d="M1769.43 646.967c0 18.25-14.78 33.052-33.02 33.052-4.78 0-9.34-1.029-13.45-2.867-.73-.32-1.45-.671-2.15-1.055-10.37-5.568-17.43-16.523-17.43-29.13 0-12.606 7.06-23.561 17.43-29.129.7-.379 1.42-.736 2.15-1.055a32.846 32.846 0 0 1 13.45-2.867c18.23 0 33.02 14.797 33.02 33.051Z"/>
  <path fill="#000" d="M1742.52 646.968c0 13.454-8.03 25.032-19.55 30.185-.74-.32-1.46-.672-2.15-1.055-10.38-5.568-17.44-16.523-17.44-29.13s7.06-23.562 17.44-29.13c.69-.378 1.41-.735 2.15-1.055 11.52 5.153 19.55 16.731 19.55 30.185Z"/>
  <path stroke="#000" stroke-linecap="round" stroke-width="8" d="M1753 711s8.82 6 30 6c20.59 0 30-5.927 30-5.927"/>
  <path fill="#FF8094" d="M1829.06 275.386c21.72-24.138 34.94-56.016 34.94-91.025 0-75.317-61.24-136.353-136.81-136.353-52.92 0-86.1 28.376-98.81 41.781a8.304 8.304 0 0 1-12.02.092c-26.57-27.593-64.75-44.084-106.72-41.643-70.25 4.1-126.5 61.82-128.58 131.931-1.2 39.478 14.47 75.363 40.4 100.975l156.77 161.044c24.27 24.921 64.34 24.875 88.6 0l155.57-159.846c2.27-2.166 4.44-4.377 6.52-6.68l.23-.23-.09-.046Z"/>
  <path fill="#000" d="M1537.22 217.312c0 19.549 15.84 35.401 35.37 35.401 5.13 0 10-1.099 14.4-3.067.79-.342 1.56-.721 2.31-1.13 11.11-5.966 18.67-17.703 18.67-31.209s-7.56-25.244-18.67-31.21c-.75-.409-1.52-.787-2.31-1.129a35.156 35.156 0 0 0-14.4-3.068c-19.53 0-35.37 15.853-35.37 35.402v.01Zm94.34 0c0 19.549 15.84 35.401 35.38 35.401 5.12 0 9.99-1.099 14.4-3.067a28.16 28.16 0 0 0 2.3-1.13c11.11-5.966 18.67-17.703 18.67-31.209s-7.56-25.244-18.67-31.21c-.74-.409-1.52-.787-2.3-1.129a35.226 35.226 0 0 0-14.4-3.068c-19.54 0-35.38 15.853-35.38 35.402v.01Z"/>
  <path fill="#000" d="M1617.93 208.886c23.28 0 32.75 7.448 33.75 8.297a4.58 4.58 0 0 1 .54 6.466 4.574 4.574 0 0 1-6.46.537c-.03-.02-7.92-6.124-27.83-6.124-17.49 0-29.78 6.579-29.9 6.651a4.604 4.604 0 0 1-6.23-1.825c-1.21-2.219-.41-5 1.81-6.222.58-.317 14.36-7.78 34.32-7.78Z"/>
  <path stroke="#000" stroke-linecap="round" stroke-width="8" d="M1589 321s6.15 4.962 24.98 6.752c18.83 1.789 30.02-6.679 30.02-6.679"/>
  <path fill="#9FCEB7" d="M1440.62 484.806c8.19 18.589 27.47 29.728 47.65 27.533 40.25-4.382 66.53 41.176 42.62 73.869-11.99 16.394-11.99 38.672 0 55.062 23.91 32.693-2.37 78.247-42.62 73.869-20.18-2.195-39.46 8.944-47.65 27.533-16.34 37.075-68.9 37.075-85.24 0-8.19-18.589-27.47-29.728-47.65-27.533-40.25 4.382-66.53-41.176-42.62-73.869 11.99-16.394 11.99-38.672 0-55.062-23.91-32.693 2.37-78.247 42.62-73.869 20.18 2.195 39.46-8.944 47.65-27.533 16.34-37.075 68.9-37.075 85.24 0Z"/>
  <path fill="#fff" d="M1335.2 600.319c0 15.988 12.96 28.954 28.94 28.954 4.19 0 8.17-.899 11.78-2.508.64-.281 1.27-.59 1.88-.925 9.09-4.879 15.27-14.479 15.27-25.526 0-11.046-6.18-20.646-15.27-25.526a28.831 28.831 0 0 0-13.66-3.433c-15.98 0-28.94 12.966-28.94 28.955v.009Z"/>
  <path fill="#000" d="M1358.78 600.32c0 11.786 7.04 21.93 17.13 26.446.65-.281 1.28-.59 1.89-.924 9.09-4.88 15.27-14.48 15.27-25.527 0-11.046-6.18-20.646-15.27-25.526-.61-.334-1.25-.644-1.89-.924-10.09 4.516-17.13 14.659-17.13 26.446v.009Z"/>
  <path fill="#fff" d="M1412.37 600.319c0 15.988 12.95 28.954 28.93 28.954 4.19 0 8.18-.899 11.78-2.508.64-.281 1.27-.59 1.88-.925 9.09-4.879 15.27-14.479 15.27-25.526 0-11.046-6.18-20.646-15.27-25.526a23.72 23.72 0 0 0-1.88-.924 28.796 28.796 0 0 0-11.78-2.509c-15.98 0-28.93 12.966-28.93 28.955v.009Z"/>
  <path fill="#000" d="M1435.94 600.32c0 11.786 7.04 21.93 17.14 26.446.64-.281 1.27-.59 1.88-.924 9.09-4.88 15.27-14.48 15.27-25.527 0-11.046-6.18-20.646-15.27-25.526a23.72 23.72 0 0 0-1.88-.924c-10.1 4.516-17.14 14.659-17.14 26.446v.009Z"/>
  <path stroke="#000" stroke-linecap="round" stroke-width="8" d="M1375 656s7.5 6 25.5 6c17.5 0 25.5-5.927 25.5-5.927"/>
</svg>