<svg xmlns="http://www.w3.org/2000/svg" width="1920" height="1080" fill="none" viewBox="0 0 1920 1080">
  <path fill="#FFB2BE" d="M0 0h1920v1080H0z"/>
  <path fill="#1277F3" d="M1920 543c-151.77-1.452-278.34-117.152-276.99-258.924C1644.37 142.312 1768.22 28.548 1920 30v513Z"/>
  <path fill="#fff" d="M1683.71 262.243c.47 25.111 21.2 45.082 46.28 44.605a45.23 45.23 0 0 0 18.42-4.288c1.01-.455 1.99-.961 2.94-1.503 14.13-7.933 23.55-23.183 23.23-40.53-.33-17.346-10.33-32.229-24.74-39.627a35.97 35.97 0 0 0-2.99-1.393 45.209 45.209 0 0 0-18.56-3.593c-25.1.477-45.05 21.218-44.58 46.322v.007Z"/>
  <path fill="#000" d="M1720.73 261.546c.35 18.505 11.71 34.231 27.69 41.02 1-.454 1.98-.96 2.93-1.503 14.13-7.933 23.55-23.182 23.23-40.529-.33-17.346-10.32-32.23-24.73-39.627a37.54 37.54 0 0 0-2.99-1.393c-15.72 7.39-26.47 23.527-26.13 42.032Z"/>
  <path fill="#fff" d="M1804.86 259.956c.48 25.111 21.21 45.082 46.29 44.605a45.23 45.23 0 0 0 18.42-4.289c1-.454 1.99-.96 2.94-1.503 14.12-7.932 23.55-23.182 23.22-40.529-.33-17.346-10.32-32.23-24.73-39.627a35.97 35.97 0 0 0-2.99-1.393 45.225 45.225 0 0 0-18.56-3.593c-25.1.477-45.05 21.218-44.58 46.322l-.01.007Z"/>
  <path fill="#000" d="M1841.88 259.259c.35 18.505 11.71 34.231 27.69 41.02 1-.454 1.98-.96 2.94-1.503 14.12-7.933 23.54-23.182 23.22-40.529-.33-17.347-10.32-32.23-24.73-39.627a35.65 35.65 0 0 0-2.99-1.393c-15.72 7.39-26.47 23.527-26.13 42.032Z"/>
  <path stroke="#000" stroke-linecap="round" stroke-width="11" d="M1752 350c0 5.333 9.91 16 37.94 16 27.25 0 37.06-10.667 37.06-14.896"/>
  <path fill="#A7E5FF" d="m1889.62 605.537-84.2-21.305c-21.41-5.419-43.17 7.549-48.59 28.965l-100.1 395.593c-5.42 21.42 7.55 43.18 28.97 48.59l84.2 21.31c21.41 5.42 43.17-7.55 48.59-28.97l100.1-395.593c5.41-21.417-7.55-43.171-28.97-48.59Z"/>
  <path fill="#fff" d="M1806.33 968.906c-2.94 11.643-14.77 18.699-26.4 15.754a21.59 21.59 0 0 1-8.12-3.999c-.42-.322-.82-.663-1.2-1.02-5.72-5.227-8.46-13.356-6.42-21.399 2.03-8.042 8.31-13.892 15.82-15.77.51-.128 1.03-.24 1.55-.326 2.92-.509 5.98-.431 9.04.342 11.63 2.944 18.68 14.772 15.73 26.418Z"/>
  <path fill="#000" d="M1789.16 964.56c-2.03 8.039-8.3 13.89-15.8 15.773a2.971 2.971 0 0 1-2.75-.693c-5.72-5.227-8.45-13.355-6.42-21.398 2.04-8.043 8.31-13.892 15.83-15.77.97-.248 2 .017 2.74.696 5.71 5.227 8.44 13.354 6.4 21.392Z"/>
  <path fill="#fff" d="M1750.15 954.689c-2.95 11.643-14.77 18.699-26.41 15.755a21.68 21.68 0 0 1-9.32-5.02c-5.72-5.227-8.45-13.355-6.42-21.398 2.04-8.043 8.31-13.893 15.83-15.77.5-.129 1.02-.241 1.54-.326 2.92-.51 5.99-.432 9.04.341 11.63 2.944 18.68 14.772 15.74 26.418Z"/>
  <path fill="#000" d="M1732.98 950.343a21.757 21.757 0 0 1-15.81 15.773 2.95 2.95 0 0 1-2.74-.693c-5.72-5.226-8.46-13.355-6.42-21.398 2.03-8.043 8.3-13.892 15.82-15.77.97-.248 2 .017 2.74.696 5.71 5.227 8.44 13.354 6.41 21.392Z"/>
  <path stroke="#000" stroke-linecap="round" stroke-width="6" d="M1729.86 993.023s6.56 6.254 19.06 9.257c12.5 3 18 .1 18 .1"/>
  <path fill="#FFEE2E" d="m1480.65 402.851-36.56 125.405c-.45 1.565-2.49 1.956-3.49.673L1361.9 428.4c-1.31-1.675-3.98-.418-3.53 1.66l29.1 132.995a2.004 2.004 0 0 1-1.97 2.427l-128.48-.911c-2.18-.015-2.8 2.988-.79 3.841l126.32 53.548c1.22.52 1.61 2.072.77 3.105l-85.7 105.147c-1.32 1.619.42 3.923 2.34 3.103l123.78-52.851c1.17-.497 2.5.201 2.75 1.443l32.92 162.724c.41 2.042 3.28 2.17 3.88.173l45.69-153.865c.44-1.501 2.37-1.931 3.41-.761l102.81 115.26c1.44 1.613 4.06.113 3.4-1.945l-40.01-124.099c-.48-1.486.86-2.924 2.38-2.558l130.41 31.463c2.1.507 3.4-2.21 1.69-3.528l-104.28-80.391a1.996 1.996 0 0 1-.2-2.989l101.78-103.182c1.5-1.512-.09-4-2.09-3.289l-124.31 44.171c-1.59.564-3.12-.969-2.56-2.556l42.54-119.372c.69-1.937-1.64-3.53-3.2-2.183l-96.94 84.021a2 2 0 0 1-3.22-.913l-36.11-115.276c-.59-1.889-3.28-1.862-3.83.039Z"/>
  <path stroke="#000" stroke-linecap="round" stroke-width="6" d="M1468 642.499c0 4.001 8 7.001 18.5 7.001s18-4 18-7.5"/>
  <circle cx="1448" cy="597" r="26" fill="#000"/>
  <circle cx="1517" cy="597" r="26" fill="#000"/>
  <path stroke="#000" stroke-linecap="round" stroke-width="6" d="M1463 596.601s8.11-3.601 18.75-3.601c10.65 0 18.25 4 18.25 4"/>
</svg>