<svg xmlns="http://www.w3.org/2000/svg" width="1920" height="1080" fill="none" viewBox="0 0 1920 1080">
  <path fill="#ACDBE5" d="M0 0h1920v1080H0z"/>
  <path fill="#FA2" d="M1139 850c0-6.627 5.37-12 12-12h763c3.31 0 6 2.686 6 6v236h-775c-3.31 0-6-2.69-6-6V850Z"/>
  <path fill="#fff" d="M1246.79 971.622c18.1 0 32.78-14.689 32.78-32.811 0-4.75-1.02-9.273-2.84-13.356-.32-.73-.66-1.444-1.05-2.137-5.52-10.304-16.39-17.318-28.89-17.318-12.51 0-23.38 7.014-28.9 17.318-.38.693-.73 1.407-1.05 2.137a32.723 32.723 0 0 0-2.84 13.356c0 18.116 14.68 32.811 32.79 32.811Z"/>
  <path fill="#000" d="M1246.79 944.887c13.34 0 24.83-7.982 29.94-19.428-.32-.73-.66-1.444-1.05-2.137-5.52-10.304-16.39-17.318-28.89-17.318-12.51 0-23.38 7.014-28.9 17.318-.37.693-.73 1.407-1.05 2.137 5.12 11.446 16.6 19.428 29.95 19.428Z"/>
  <path fill="#fff" d="M1334.21 971.622c18.11 0 32.79-14.689 32.79-32.811 0-4.75-1.02-9.273-2.84-13.356-.32-.73-.67-1.444-1.05-2.137-5.52-10.304-16.39-17.318-28.9-17.318-12.5 0-23.37 7.014-28.89 17.318-.38.693-.73 1.407-1.05 2.137a32.73 32.73 0 0 0-2.85 13.356c0 18.116 14.68 32.811 32.79 32.811Z"/>
  <path fill="#000" d="M1334.21 944.887c13.35 0 24.83-7.982 29.95-19.428-.32-.73-.67-1.444-1.05-2.137-5.52-10.304-16.39-17.318-28.9-17.318-12.5 0-23.37 7.014-28.89 17.318-.38.693-.73 1.407-1.05 2.137 5.11 11.446 16.6 19.428 29.94 19.428Z"/>
  <path stroke="#000" stroke-linecap="round" stroke-width="9" d="M1265 1005s6.21 2 24.28 2 23.72-.76 23.72-.76"/>
  <path fill="#068480" d="M1621.83 586.419H1920V0h-586l287.83 586.419Z"/>
  <path fill="#fff" d="M1831.62 244.765c0 30.707-24.88 55.614-55.58 55.614a55.32 55.32 0 0 1-22.62-4.824 45.561 45.561 0 0 1-3.62-1.775c-17.45-9.369-29.33-27.803-29.33-49.015 0-21.213 11.88-39.647 29.33-49.016a49.276 49.276 0 0 1 3.62-1.775 55.285 55.285 0 0 1 22.62-4.824c30.69 0 55.58 24.898 55.58 55.615Z"/>
  <path fill="#000" d="M1786.34 244.765c0 22.639-13.52 42.121-32.91 50.791a42.724 42.724 0 0 1-3.62-1.775c-17.45-9.369-29.33-27.803-29.33-49.016 0-21.213 11.88-39.646 29.33-49.015a45.285 45.285 0 0 1 3.62-1.775c19.39 8.669 32.91 28.152 32.91 50.79Z"/>
  <path fill="#fff" d="M1683.43 244.765c0 30.707-24.88 55.614-55.57 55.614a55.25 55.25 0 0 1-22.62-4.824 42.425 42.425 0 0 1-3.62-1.775c-17.45-9.369-29.33-27.803-29.33-49.015 0-21.213 11.88-39.647 29.33-49.016a45.627 45.627 0 0 1 3.62-1.775 55.25 55.25 0 0 1 22.62-4.824c30.69 0 55.57 24.898 55.57 55.615Z"/>
  <path fill="#000" d="M1638.15 244.765c0 22.639-13.52 42.121-32.9 50.791a42.724 42.724 0 0 1-3.62-1.775c-17.46-9.369-29.34-27.803-29.34-49.016 0-21.213 11.88-39.646 29.34-49.015a45.285 45.285 0 0 1 3.62-1.775c19.38 8.669 32.9 28.152 32.9 50.79Z"/>
  <path stroke="#000" stroke-linecap="round" stroke-width="14" d="M1657 357c0 6 11.24 18 43 18 30.88 0 42-12 42-16.758"/>
  <path fill="#FF0057" d="M1369.5 800.925c-25.67 0-38.38-1.349-29.5-20.925 43-70.5 119-190.5 163.42-257.117 1.57-2.107 3.19-4.268 5.48-5.549 17.09-9.541 37.55 34.874 44.28 45.035a2687.433 2687.433 0 0 1 111.13 183.154c6.08 10.987 18.21 29.34 20.15 41.951.7 4.612-.92 9.913-5.04 12.102-2.42 1.294-5.3 1.336-8.04 1.349H1369.5Z"/>
  <path stroke="#000" stroke-linecap="round" stroke-width="8" d="M1504 703s1-13.5 13.5-13.5c10.5 0 12 12 12 12"/>
  <path fill="#fff" d="M1478.89 613.146c-15.57 0-28.2 12.622-28.2 28.187 0 4.082.87 7.965 2.44 11.474.27.626.57 1.241.9 1.835 4.75 8.853 14.11 14.877 24.87 14.877 10.76 0 20.11-6.024 24.86-14.877.33-.594.63-1.213.9-1.835a28.029 28.029 0 0 0 2.45-11.474c0-15.565-12.63-28.187-28.21-28.187h-.01Z"/>
  <path fill="#000" d="M1478.89 636.113c-11.48 0-21.36 6.859-25.76 16.692.27.627.57 1.242.9 1.836 4.75 8.853 14.11 14.877 24.87 14.877 10.76 0 20.11-6.024 24.86-14.877.33-.594.63-1.213.9-1.836-4.4-9.833-14.28-16.692-25.76-16.692h-.01Z"/>
  <path fill="#fff" d="M1542.31 613.146c-15.58 0-28.21 12.622-28.21 28.187 0 4.082.88 7.965 2.45 11.474.27.626.57 1.241.9 1.835 4.75 8.853 14.1 14.877 24.86 14.877s20.11-6.024 24.87-14.877c.32-.594.63-1.213.9-1.835a28.022 28.022 0 0 0 2.44-11.474c0-15.565-12.63-28.187-28.2-28.187h-.01Z"/>
  <path fill="#000" d="M1542.31 636.113c-11.48 0-21.37 6.859-25.77 16.692.28.627.58 1.242.9 1.836 4.76 8.853 14.11 14.877 24.87 14.877 10.76 0 20.11-6.024 24.87-14.877.32-.594.63-1.213.9-1.836-4.4-9.833-14.28-16.692-25.76-16.692h-.01Z"/>
</svg>